<svg id="splitsvg" version="1.1" xmlns="http://www.w3.org/2000/svg" xmlns:xlink="http://www.w3.org/1999/xlink" 
     width="400" height="400" style="background-color: black;">
   <g id="svgg">
      <path id="path0" d="M301.766 12.169 C 300.206 12.848,299.035 14.330,298.169 16.723 C 296.206 22.150,293.777 26.653,280.440 49.600 C 260.668 83.616,260.044 84.655,258.048 86.880 C 254.739 90.569,253.602 90.599,251.961 87.042 C 250.163 83.146,247.564 81.426,241.505 80.121 C 233.420 78.380,120.617 78.953,111.696 80.780 C 100.434 83.088,93.178 90.920,93.210 100.736 C 93.235 108.631,93.983 109.833,109.219 126.465 C 116.988 134.946,121.219 139.716,138.946 159.978 C 144.036 165.795,151.620 174.438,155.800 179.183 C 178.841 205.342,181.510 209.619,182.832 222.507 C 183.423 228.268,183.784 295.072,183.293 307.872 L 182.937 317.145 181.632 319.795 C 179.918 323.276,177.972 324.778,168.706 329.763 C 151.940 338.785,146.800 344.633,146.800 354.685 C 146.800 366.629,156.027 373.881,173.600 375.749 C 177.546 376.168,180.678 376.764,183.400 377.612 C 190.013 379.672,193.450 378.665,193.363 374.691 C 193.219 368.104,184.921 363.269,171.261 361.814 C 162.560 360.887,160.200 359.484,160.200 355.237 C 160.200 351.215,162.758 348.691,172.400 343.200 C 187.771 334.445,193.565 328.530,195.404 319.712 C 196.162 316.076,196.383 225.498,195.645 221.000 C 193.141 205.745,187.898 196.307,172.423 179.200 C 170.532 177.110,165.758 171.620,161.813 167.000 C 157.868 162.380,153.242 157.109,151.533 155.287 C 149.824 153.465,145.855 149.064,142.713 145.507 C 127.897 128.734,120.669 120.590,116.419 115.883 C 106.114 104.466,105.367 103.364,105.688 100.025 C 106.082 95.926,109.597 93.557,116.400 92.806 C 128.766 91.441,226.981 91.715,238.000 93.145 C 243.027 93.798,244.798 93.875,247.362 93.556 C 249.101 93.339,250.788 93.263,251.111 93.387 C 252.186 93.800,251.521 97.539,249.698 101.339 C 245.764 109.536,243.629 111.611,230.400 120.092 C 215.934 129.366,212.467 144.218,222.289 154.827 C 229.420 162.530,236.975 163.960,249.099 159.904 C 254.588 158.068,254.830 158.098,253.777 160.496 C 251.259 166.228,245.436 173.926,231.612 189.800 C 216.477 207.179,213.900 212.907,212.805 231.600 C 212.111 243.461,212.065 313.262,212.750 316.000 C 215.140 325.561,220.927 332.060,233.400 339.192 C 252.140 349.908,253.366 358.162,236.674 361.238 C 222.983 363.760,219.710 364.896,215.778 368.490 C 207.812 375.771,212.662 382.046,223.425 378.383 C 225.391 377.714,230.111 376.626,233.914 375.966 C 252.756 372.694,260.800 366.118,260.800 353.985 C 260.800 343.581,254.227 335.611,238.617 327.084 C 224.478 319.361,224.772 320.416,225.227 279.119 C 225.892 218.801,225.942 218.421,234.673 207.759 C 235.953 206.196,239.166 202.236,241.813 198.959 C 249.244 189.760,256.789 180.603,268.806 166.200 C 274.863 158.940,285.339 146.340,292.085 138.200 C 298.831 130.060,305.993 121.510,307.999 119.200 C 319.210 106.292,321.985 98.652,318.811 89.432 C 315.004 78.371,304.662 73.547,290.087 76.036 C 279.764 77.799,280.171 75.926,296.001 48.800 C 308.003 28.234,310.504 22.727,309.838 18.330 C 309.128 13.641,305.226 10.662,301.766 12.169 
      M281.408 87.792 C 284.893 90.402,286.692 90.710,292.255 89.645 C 300.940 87.984,305.399 89.155,306.823 93.470 C 308.420 98.308,307.503 99.679,284.627 126.662 C 267.832 146.471,266.408 148.057,262.874 150.870 C 258.182 154.606,257.923 154.379,259.452 147.876 C 260.289 144.318,260.544 142.041,260.697 136.772 L 260.889 130.145 259.613 126.572 C 257.104 119.546,257.104 119.549,261.694 111.000 C 276.227 83.933,276.238 83.919,281.408 87.792 M244.936 133.221 C 247.934 135.580,246.508 143.192,242.495 146.253 C 234.806 152.118,226.141 143.551,233.041 136.907 C 236.961 133.133,242.602 131.385,244.936 133.221 Z"
      stroke-width="10px" stroke="cyan" fill="cyan" fill-rule="nonzero" 
      transform="translate(0,0)">
      </path>
   </g>
</svg>
