<?xml version="1.0" encoding="UTF-8"?>
<svg xmlns="http://www.w3.org/2000/svg" xmlns:xlink="http://www.w3.org/1999/xlink" width="16pt" height="16pt" viewBox="0 0 16 16" version="1.1">
<g id="surface1">
<path style=" stroke:none;fill-rule:nonzero;fill:rgb(0%,0%,0%);fill-opacity:0.3;" d="M 3.601562 0.601562 C 3.25 0.949219 3 2.351562 3 3.699219 C 3 5.851562 2.75 6.449219 1.398438 7.851562 L -0.199219 9.5 L 3.050781 12.800781 L 6.300781 16.050781 L 10.101562 11.898438 L 13.949219 7.800781 L 10.648438 4.550781 L 7.398438 1.25 L 7.648438 4.101562 C 7.851562 6.199219 7.75 7.101562 7.199219 7.550781 C 6.050781 8.5 4.851562 7.148438 5.199219 5.351562 C 5.449219 4.101562 5.398438 3.949219 4.75 4.5 C 4.101562 5.050781 4 4.851562 4 3.050781 C 4 1.300781 4.148438 1 5.050781 1 C 6 1 6.050781 1.25 5.949219 3.851562 C 5.851562 5.851562 6 6.75 6.449219 6.898438 C 7.398438 7.199219 6.949219 1.101562 5.949219 0.449219 C 5 -0.148438 4.300781 -0.101562 3.601562 0.601562 Z M 3.601562 0.601562 "/>
<path style=" stroke:none;fill-rule:nonzero;fill:rgb(20%,20%,100%);fill-opacity:0.3;" d="M 13.25 10.949219 C 12.25 12.898438 12.449219 14.699219 13.648438 14.898438 C 14.75 15.101562 16 14.148438 16 13.050781 C 16 12.601562 15.550781 11.601562 15.050781 10.800781 L 14.101562 9.351562 Z M 13.25 10.949219 "/>
</g>
</svg>
