<svg xmlns="http://www.w3.org/2000/svg" xmlns:xlink="http://www.w3.org/1999/xlink" version="1.1" width="32px" height="32px" viewBox="-10 -10 120 100" stroke="white" fill="white">
<path d="M58.439,64.209c-0.586-0.586-1.535-0.586-2.121,0l-6.32,6.32l-6.32-6.32c-0.586-0.586-1.535-0.586-2.121,0  c-0.586,0.585-0.586,1.536,0,2.121l6.32,6.32l-6.32,6.32c-0.586,0.585-0.586,1.536,0,2.121c0.293,0.293,0.677,0.439,1.061,0.439  s0.768-0.146,1.061-0.439l6.32-6.32l6.32,6.32c0.293,0.293,0.677,0.439,1.061,0.439s0.768-0.146,1.061-0.439  c0.586-0.585,0.586-1.536,0-2.121l-6.32-6.32l6.32-6.32C59.025,65.745,59.025,64.795,58.439,64.209z M94.834,6.412H5.166  c-0.828,0-1.5,0.671-1.5,1.5v70.306c0,0.829,0.672,1.5,1.5,1.5h25.15C33.225,87.79,40.938,93.588,50,93.588  s16.775-5.798,19.684-13.871h25.15c0.828,0,1.5-0.671,1.5-1.5V7.912C96.334,7.083,95.662,6.412,94.834,6.412z M50,90.588  c-9.891,0-17.938-8.047-17.938-17.938S40.109,54.713,50,54.713s17.938,8.047,17.938,17.938S59.891,90.588,50,90.588z M93.334,76.717  h-22.8c0.26-1.316,0.403-2.675,0.403-4.066c0-11.545-9.393-20.938-20.938-20.938s-20.938,9.393-20.938,20.938  c0,1.392,0.144,2.75,0.403,4.066h-22.8V50.325l28.81-26.276l30.155,28.863c0.29,0.278,0.663,0.417,1.037,0.417  c0.373,0,0.745-0.138,1.035-0.415l13.466-12.846l12.165,11.572V76.717z M93.334,47.499L82.202,36.91  c-0.58-0.551-1.491-0.55-2.069,0.001L66.67,49.754L36.537,20.913c-0.571-0.547-1.467-0.557-2.048-0.025L6.666,46.264V9.412h86.668  V47.499z"/>
</svg>
